<?xml version="1.0" standalone="no"?>
<!DOCTYPE svg PUBLIC "-//W3C//DTD SVG 20010904//EN" "http://www.w3.org/TR/2001/REC-SVG-20010904/DTD/svg10.dtd">
<svg version="1.0" xmlns="http://www.w3.org/2000/svg" width="884.000000pt" height="884.000000pt" viewBox="0 0 884.000000 884.000000" preserveAspectRatio="xMidYMid meet">
    <metadata>
        Created by potrace 1.14, written by Peter Selinger 2001-2017
    </metadata>
    <g transform="translate(0.000000,884.000000) scale(0.100000,-0.100000)" fill="#000000" stroke="none">
        <path
            d="M1928 8824 c-3 -2 -26 -6 -53 -9 -117 -12 -285 -54 -405 -102 -102
-41 -280 -133 -280 -145 0 -4 -5 -8 -11 -8 -9 0 -61 -34 -124 -82 -92 -70
-261 -246 -315 -328 -8 -12 -20 -28 -26 -34 -14 -15 -105 -171 -126 -216 -48
-104 -99 -239 -113 -300 -25 -116 -38 -185 -44 -230 -8 -76 -8 -5853 1 -5915
7 -49 14 -86 23 -135 3 -14 7 -34 9 -45 22 -117 125 -367 196 -475 6 -8 14
-25 20 -38 5 -12 14 -22 20 -22 5 0 10 -5 10 -11 0 -30 179 -233 289 -329 29
-25 59 -51 66 -57 7 -7 18 -13 23 -13 6 0 12 -3 14 -7 13 -30 278 -175 388
-213 36 -12 74 -26 85 -31 23 -11 62 -21 88 -22 9 -1 17 -5 17 -10 0 -4 4 -6
9 -3 5 4 21 2 35 -4 21 -8 67 -15 156 -24 9 -1 20 -5 25 -8 6 -3 418 -6 918
-6 l907 -1 0 550 c0 302 -3 550 -7 550 -5 1 -390 2 -858 3 -650 2 -864 5 -910
15 -101 22 -182 68 -266 151 -84 84 -130 166 -152 272 -18 87 -17 5681 1 5743
6 22 12 43 12 48 0 27 79 155 126 206 50 54 156 132 188 137 6 1 27 9 46 17
64 27 182 38 266 24 135 -23 278 -118 359 -240 63 -96 93 -210 97 -377 1 -30
31 -126 56 -175 28 -56 75 -119 112 -151 14 -12 35 -31 48 -42 12 -11 36 -25
52 -32 17 -7 30 -16 30 -20 0 -3 6 -7 13 -8 6 0 39 -11 72 -24 60 -22 60 -22
700 -24 692 -1 688 -1 805 54 30 14 61 32 68 39 7 7 17 13 21 13 24 0 169 177
175 213 1 7 4 17 7 22 21 35 38 119 44 218 8 128 31 204 88 288 62 92 111 138
201 188 138 78 322 86 465 19 25 -12 48 -22 51 -22 29 -6 200 -160 200 -180 0
-4 11 -23 24 -44 12 -20 34 -71 47 -112 l24 -75 0 -1067 c0 -588 2 -1069 5
-1069 3 -1 251 -2 552 -3 l546 -1 5 28 c2 15 0 30 -5 33 -4 3 -4 13 1 23 6 10
6 23 1 31 -5 8 -5 21 0 30 5 9 4 23 -1 33 -6 9 -6 17 -2 17 4 0 8 11 8 25 0
14 -3 25 -7 25 -4 0 -3 11 2 25 6 15 6 26 0 30 -6 4 -7 13 -1 23 6 11 6 24 0
34 -6 10 -6 19 0 23 7 4 7 15 1 31 -6 14 -7 23 -2 21 4 -3 7 8 7 24 0 16 -3
29 -6 29 -3 0 -3 20 1 45 4 24 3 42 -2 39 -4 -3 -4 5 1 18 5 15 5 31 0 41 -6
9 -6 17 -1 17 8 0 7 69 -2 77 -3 3 -1 15 4 27 4 13 4 29 -1 39 -6 9 -6 17 -1
17 8 0 7 69 -2 77 -3 3 -1 15 4 27 4 13 4 29 -1 39 -6 9 -6 17 -1 17 8 0 7 69
-2 77 -3 3 -1 15 4 27 4 13 4 29 -1 39 -6 9 -6 17 -1 17 8 0 7 69 -2 77 -3 3
-1 15 4 27 4 13 4 29 -1 39 -6 9 -6 17 -1 17 8 0 7 69 -2 77 -3 3 -1 15 4 27
4 13 4 29 -1 39 -6 9 -6 17 -1 17 8 0 7 69 -2 77 -3 3 -1 15 4 27 4 13 4 29
-1 39 -6 9 -6 17 -1 17 8 0 7 69 -2 77 -3 3 -1 15 4 27 4 13 4 29 -1 39 -6 9
-6 17 -2 17 9 0 9 177 0 186 -3 3 -2 16 3 28 4 13 4 29 -1 39 -6 9 -6 17 -2
17 4 0 8 11 8 25 0 14 -2 25 -5 25 -3 0 -6 37 -7 83 -2 84 -6 134 -16 177 -4
14 -9 39 -11 55 -3 17 -10 48 -16 70 -6 22 -13 50 -15 62 -11 47 -65 183 -109
272 -42 85 -141 247 -169 276 -7 7 -24 28 -39 46 -46 60 -160 171 -249 244
-38 32 -197 135 -208 135 -5 0 -11 4 -13 8 -3 9 -174 92 -189 92 -5 0 -17 4
-27 9 -16 9 -51 22 -62 23 -3 0 -21 6 -40 14 -36 14 -82 25 -112 27 -10 1 -18
4 -18 7 0 3 -8 6 -17 7 -18 0 -75 10 -123 21 -29 6 -3666 13 -3672 6z"
        />
        <path
            d="M6229 4135 c-2 -2 -23 -6 -47 -10 -130 -19 -309 -84 -400 -146 -23
-16 -45 -29 -48 -29 -22 0 -222 -192 -669 -642 -286 -288 -529 -535 -541 -548
-33 -40 -108 -161 -133 -213 -71 -156 -101 -283 -104 -452 -6 -253 65 -476
216 -685 22 -30 290 -305 596 -610 565 -564 609 -604 756 -678 83 -42 134 -60
250 -89 159 -39 396 -35 531 8 17 5 40 11 51 13 38 8 151 59 233 107 85 49
219 173 663 617 274 273 526 527 558 563 53 59 149 198 149 216 0 3 7 14 15
23 9 10 18 26 20 36 3 11 18 56 34 101 42 120 55 203 55 348 0 147 -7 205 -40
325 -23 82 -117 266 -173 340 -65 87 -1103 1125 -1189 1190 -61 46 -250 149
-283 153 -8 2 -18 5 -24 8 -5 4 -23 10 -40 14 -40 11 -35 10 -75 18 -19 4 -46
10 -60 13 -29 7 -296 15 -301 9z m606 -1584 c261 -261 475 -477 475 -481 0 -8
-946 -954 -957 -957 -5 -2 -224 213 -488 477 l-479 481 429 433 c237 238 433
434 437 434 4 1 26 22 49 47 23 25 46 44 51 43 5 -2 222 -217 483 -477z"
        />
    </g>
</svg>