<svg width="623" height="409" viewBox="0 0 623 409" fill="none" xmlns="http://www.w3.org/2000/svg">
<g clip-path="url(#clip0_24_2)">
<path d="M0 42H623V395C623 402.732 616.732 409 609 409H14C6.268 409 0 402.732 0 395V42Z" fill="white"/>
<path d="M0 14C0 6.268 6.268 0 14 0H609C616.732 0 623 6.268 623 14V42H0V14Z" fill="white" fill-opacity="0.4"/>
<path d="M23 29C27.4183 29 31 25.4183 31 21C31 16.5817 27.4183 13 23 13C18.5817 13 15 16.5817 15 21C15 25.4183 18.5817 29 23 29Z" fill="white"/>
<path d="M48 29C52.4183 29 56 25.4183 56 21C56 16.5817 52.4183 13 48 13C43.5817 13 40 16.5817 40 21C40 25.4183 43.5817 29 48 29Z" fill="white"/>
<path d="M73 29C77.4183 29 81 25.4183 81 21C81 16.5817 77.4183 13 73 13C68.5817 13 65 16.5817 65 21C65 25.4183 68.5817 29 73 29Z" fill="white"/>
<path d="M124 125H24C21.7909 125 20 126.791 20 129V133C20 135.209 21.7909 137 24 137H124C126.209 137 128 135.209 128 133V129C128 126.791 126.209 125 124 125Z" fill="#EAEAEA"/>
<path d="M79 149H24C21.7909 149 20 150.791 20 153V157C20 159.209 21.7909 161 24 161H79C81.2091 161 83 159.209 83 157V153C83 150.791 81.2091 149 79 149Z" fill="#8330C2"/>
<path d="M99 173H24C21.7909 173 20 174.791 20 177V181C20 183.209 21.7909 185 24 185H99C101.209 185 103 183.209 103 181V177C103 174.791 101.209 173 99 173Z" fill="#EAEAEA"/>
<path d="M240.651 131H209.544C199.302 131 191 139.302 191 149.544V149.545C191 159.787 199.302 168.089 209.544 168.089H240.651C250.893 168.089 259.195 159.787 259.195 149.545V149.544C259.195 139.302 250.893 131 240.651 131Z" fill="#F5F5F5"/>
<path d="M318.805 131H289.075C278.833 131 270.531 139.302 270.531 149.544V149.545C270.531 159.787 278.833 168.089 289.075 168.089H318.805C329.047 168.089 337.349 159.787 337.349 149.545V149.544C337.349 139.302 329.047 131 318.805 131Z" fill="#8330C2"/>
<path d="M295.222 154.115C294.707 154.115 294.247 153.983 293.841 153.719C293.435 153.455 293.114 153.071 292.878 152.568C292.642 152.065 292.524 151.455 292.524 150.736C292.524 150.009 292.643 149.395 292.882 148.895C293.124 148.392 293.449 148.013 293.858 147.757C294.267 147.499 294.723 147.369 295.226 147.369C295.609 147.369 295.925 147.435 296.172 147.565C296.419 147.693 296.615 147.848 296.76 148.03C296.905 148.209 297.017 148.378 297.097 148.537H297.161V145.273H298.707V154H297.19V152.969H297.097C297.017 153.128 296.902 153.297 296.751 153.476C296.601 153.652 296.402 153.803 296.155 153.928C295.908 154.053 295.597 154.115 295.222 154.115ZM295.652 152.849C295.979 152.849 296.257 152.761 296.487 152.585C296.717 152.406 296.892 152.158 297.011 151.839C297.131 151.521 297.19 151.151 297.19 150.727C297.19 150.304 297.131 149.936 297.011 149.624C296.895 149.311 296.722 149.068 296.491 148.895C296.264 148.722 295.984 148.635 295.652 148.635C295.308 148.635 295.021 148.724 294.791 148.903C294.561 149.082 294.388 149.33 294.271 149.645C294.155 149.96 294.097 150.321 294.097 150.727C294.097 151.136 294.155 151.501 294.271 151.822C294.391 152.141 294.565 152.392 294.795 152.577C295.028 152.759 295.314 152.849 295.652 152.849ZM300.351 154V147.455H301.894V154H300.351ZM301.127 146.526C300.882 146.526 300.672 146.445 300.496 146.283C300.32 146.118 300.232 145.92 300.232 145.69C300.232 145.457 300.32 145.26 300.496 145.098C300.672 144.933 300.882 144.851 301.127 144.851C301.374 144.851 301.584 144.933 301.757 145.098C301.934 145.26 302.022 145.457 302.022 145.69C302.022 145.92 301.934 146.118 301.757 146.283C301.584 146.445 301.374 146.526 301.127 146.526ZM308.653 149.185L307.247 149.338C307.207 149.196 307.138 149.062 307.038 148.938C306.942 148.812 306.811 148.712 306.646 148.635C306.482 148.558 306.28 148.52 306.041 148.52C305.72 148.52 305.45 148.589 305.232 148.729C305.016 148.868 304.909 149.048 304.912 149.27C304.909 149.46 304.979 149.615 305.121 149.734C305.266 149.854 305.504 149.952 305.837 150.028L306.953 150.267C307.572 150.401 308.033 150.612 308.334 150.902C308.638 151.192 308.791 151.571 308.794 152.04C308.791 152.452 308.67 152.815 308.432 153.131C308.196 153.443 307.868 153.687 307.447 153.864C307.027 154.04 306.544 154.128 305.999 154.128C305.197 154.128 304.553 153.96 304.064 153.625C303.575 153.287 303.284 152.817 303.19 152.214L304.695 152.07C304.763 152.365 304.908 152.588 305.129 152.739C305.351 152.889 305.639 152.964 305.994 152.964C306.361 152.964 306.655 152.889 306.876 152.739C307.101 152.588 307.213 152.402 307.213 152.18C307.213 151.993 307.141 151.838 306.996 151.716C306.854 151.594 306.632 151.5 306.331 151.435L305.214 151.2C304.587 151.07 304.122 150.849 303.821 150.54C303.52 150.227 303.371 149.832 303.374 149.355C303.371 148.952 303.48 148.602 303.702 148.307C303.926 148.009 304.237 147.778 304.635 147.616C305.036 147.452 305.497 147.369 306.02 147.369C306.787 147.369 307.391 147.533 307.831 147.859C308.274 148.186 308.548 148.628 308.653 149.185ZM311.609 150.165V154H310.066V145.273H311.575V148.567H311.651C311.805 148.197 312.042 147.906 312.363 147.693C312.687 147.477 313.099 147.369 313.599 147.369C314.053 147.369 314.45 147.464 314.788 147.655C315.126 147.845 315.387 148.124 315.572 148.49C315.759 148.857 315.853 149.304 315.853 149.832V154H314.31V150.071C314.31 149.631 314.197 149.288 313.969 149.044C313.745 148.797 313.43 148.673 313.023 148.673C312.751 148.673 312.506 148.733 312.29 148.852C312.077 148.969 311.91 149.138 311.788 149.359C311.668 149.581 311.609 149.849 311.609 150.165Z" fill="#F2F2F2"/>
<path d="M396.903 131H367.283C357.011 131 348.684 139.327 348.684 149.598C348.684 159.87 357.011 168.197 367.283 168.197H396.903C407.175 168.197 415.502 159.87 415.502 149.598C415.502 139.327 407.175 131 396.903 131Z" fill="#F5F5F5"/>
<path opacity="0.1" d="M392.769 146.844H371.416C370.274 146.844 369.349 147.769 369.349 148.911V150.288C369.349 151.43 370.274 152.355 371.416 152.355H392.769C393.911 152.355 394.836 151.43 394.836 150.288V148.911C394.836 147.769 393.911 146.844 392.769 146.844Z" fill="black"/>
<path d="M332.215 185.42H244.044C233.772 185.42 225.445 193.747 225.445 204.018C225.445 214.29 233.772 222.617 244.044 222.617H332.215C342.487 222.617 350.814 214.29 350.814 204.018C350.814 193.747 342.487 185.42 332.215 185.42Z" fill="#F5F5F5"/>
<path opacity="0.1" d="M328.082 201.264H248.177C247.035 201.264 246.11 202.189 246.11 203.331V204.708C246.11 205.85 247.035 206.775 248.177 206.775H328.082C329.224 206.775 330.149 205.85 330.149 204.708V203.331C330.149 202.189 329.224 201.264 328.082 201.264Z" fill="black"/>
<path d="M429.22 185.42H381.001C370.729 185.42 362.402 193.747 362.402 204.018C362.402 214.29 370.729 222.617 381.001 222.617H429.22C439.492 222.617 447.819 214.29 447.819 204.018C447.819 193.747 439.492 185.42 429.22 185.42Z" fill="#F5F5F5"/>
<path opacity="0.1" d="M425.086 201.264H385.134C383.992 201.264 383.067 202.189 383.067 203.331V204.708C383.067 205.85 383.992 206.775 385.134 206.775H425.086C426.228 206.775 427.153 205.85 427.153 204.708V203.331C427.153 202.189 426.228 201.264 425.086 201.264Z" fill="black"/>
<path d="M481.387 131H445.568C435.296 131 426.969 139.327 426.969 149.598C426.969 159.87 435.296 168.197 445.568 168.197H481.387C491.659 168.197 499.986 159.87 499.986 149.598C499.986 139.327 491.659 131 481.387 131Z" fill="#F5F5F5"/>
<path opacity="0.1" d="M477.254 146.844H449.701C448.559 146.844 447.634 147.769 447.634 148.911V150.288C447.634 151.43 448.559 152.355 449.701 152.355H477.254C478.396 152.355 479.321 151.43 479.321 150.288V148.911C479.321 147.769 478.396 146.844 477.254 146.844Z" fill="black"/>
<path d="M538.5 185.42H477.193C466.921 185.42 458.594 193.747 458.594 204.018C458.594 214.29 466.921 222.617 477.193 222.617H538.5C548.772 222.617 557.099 214.29 557.099 204.018C557.099 193.747 548.772 185.42 538.5 185.42Z" fill="#F5F5F5"/>
<path opacity="0.1" d="M534.366 201.264H481.326C480.184 201.264 479.259 202.189 479.259 203.331V204.708C479.259 205.85 480.184 206.775 481.326 206.775H534.366C535.508 206.775 536.433 205.85 536.433 204.708V203.331C536.433 202.189 535.508 201.264 534.366 201.264Z" fill="black"/>
<path d="M333.206 239.838H220.236C209.964 239.838 201.637 248.165 201.637 258.437C201.637 268.708 209.964 277.035 220.236 277.035H333.206C343.478 277.035 351.805 268.708 351.805 258.437C351.805 248.165 343.478 239.838 333.206 239.838Z" fill="#F5F5F5"/>
<path opacity="0.1" d="M329.072 255.682H224.369C223.227 255.682 222.302 256.607 222.302 257.749V259.126C222.302 260.268 223.227 261.193 224.369 261.193H329.072C330.214 261.193 331.139 260.268 331.139 259.126V257.749C331.139 256.607 330.214 255.682 329.072 255.682Z" fill="black"/>
<path d="M410.866 239.838H381.935C371.663 239.838 363.336 248.165 363.336 258.437C363.336 268.708 371.663 277.035 381.935 277.035H410.866C421.138 277.035 429.465 268.708 429.465 258.437C429.465 248.165 421.138 239.838 410.866 239.838Z" fill="#F5F5F5"/>
<path opacity="0.1" d="M406.732 255.682H386.068C384.926 255.682 384.001 256.607 384.001 257.749V259.126C384.001 260.268 384.926 261.193 386.068 261.193H406.732C407.874 261.193 408.799 260.268 408.799 259.126V257.749C408.799 256.607 407.874 255.682 406.732 255.682Z" fill="black"/>
<path d="M519.387 239.838H459.458C449.186 239.838 440.859 248.165 440.859 258.437C440.859 268.708 449.186 277.035 459.458 277.035H519.387C529.659 277.035 537.986 268.708 537.986 258.437C537.986 248.165 529.659 239.838 519.387 239.838Z" fill="#F5F5F5"/>
<path opacity="0.1" d="M515.253 255.682H463.591C462.449 255.682 461.524 256.607 461.524 257.749V259.126C461.524 260.268 462.449 261.193 463.591 261.193H515.253C516.395 261.193 517.32 260.268 517.32 259.126V257.749C517.32 256.607 516.395 255.682 515.253 255.682Z" fill="black"/>
<path d="M415.406 293.766H362.215C351.933 293.766 343.598 302.101 343.598 312.383C343.598 322.665 351.933 331 362.215 331H415.406C425.688 331 434.023 322.665 434.023 312.383C434.023 302.101 425.688 293.766 415.406 293.766Z" fill="#F5F5F5"/>
<path opacity="0.1" d="M411.291 309.609H366.33C365.188 309.609 364.263 310.534 364.263 311.676V313.089C364.263 314.231 365.188 315.156 366.33 315.156H411.291C412.432 315.156 413.358 314.231 413.358 313.089V311.676C413.358 310.534 412.432 309.609 411.291 309.609Z" fill="black"/>
<path d="M313.618 293.766H253.689C243.417 293.766 235.09 302.093 235.09 312.365C235.09 322.636 243.417 330.963 253.689 330.963H313.618C323.89 330.963 332.217 322.636 332.217 312.365C332.217 302.093 323.89 293.766 313.618 293.766Z" fill="#F5F5F5"/>
<path opacity="0.1" d="M309.484 309.609H257.822C256.68 309.609 255.755 310.534 255.755 311.676V313.053C255.755 314.195 256.68 315.12 257.822 315.12H309.484C310.626 315.12 311.551 314.195 311.551 313.053V311.676C311.551 310.534 310.626 309.609 309.484 309.609Z" fill="black"/>
<path d="M214.648 154.128C213.994 154.128 213.433 153.984 212.964 153.697C212.499 153.411 212.139 153.014 211.886 152.509C211.636 152 211.511 151.415 211.511 150.753C211.511 150.088 211.639 149.501 211.895 148.993C212.151 148.482 212.511 148.084 212.977 147.8C213.446 147.513 214 147.369 214.639 147.369C215.17 147.369 215.641 147.467 216.05 147.663C216.462 147.857 216.79 148.131 217.034 148.486C217.278 148.838 217.418 149.25 217.452 149.722H215.977C215.918 149.406 215.776 149.143 215.551 148.933C215.33 148.72 215.033 148.614 214.661 148.614C214.345 148.614 214.068 148.699 213.83 148.869C213.591 149.037 213.405 149.278 213.271 149.594C213.141 149.909 213.075 150.287 213.075 150.727C213.075 151.173 213.141 151.557 213.271 151.878C213.402 152.196 213.585 152.442 213.821 152.615C214.06 152.786 214.339 152.871 214.661 152.871C214.888 152.871 215.091 152.828 215.27 152.743C215.452 152.655 215.604 152.528 215.726 152.364C215.848 152.199 215.932 151.999 215.977 151.763H217.452C217.415 152.226 217.278 152.636 217.043 152.994C216.807 153.349 216.486 153.628 216.08 153.83C215.673 154.028 215.196 154.128 214.648 154.128ZM220.602 154.132C220.187 154.132 219.814 154.058 219.481 153.911C219.152 153.76 218.89 153.538 218.697 153.246C218.507 152.953 218.412 152.592 218.412 152.163C218.412 151.794 218.48 151.489 218.616 151.247C218.752 151.006 218.939 150.812 219.174 150.668C219.41 150.523 219.676 150.413 219.971 150.339C220.27 150.263 220.578 150.207 220.896 150.173C221.279 150.134 221.591 150.098 221.829 150.067C222.068 150.033 222.241 149.982 222.349 149.913C222.46 149.842 222.515 149.733 222.515 149.585V149.56C222.515 149.239 222.42 148.99 222.23 148.814C222.039 148.638 221.765 148.55 221.407 148.55C221.029 148.55 220.73 148.632 220.508 148.797C220.289 148.962 220.142 149.156 220.065 149.381L218.625 149.176C218.738 148.778 218.926 148.446 219.187 148.179C219.449 147.909 219.768 147.707 220.146 147.574C220.524 147.438 220.941 147.369 221.399 147.369C221.714 147.369 222.028 147.406 222.341 147.48C222.653 147.554 222.939 147.676 223.197 147.847C223.456 148.014 223.663 148.243 223.819 148.533C223.978 148.822 224.058 149.185 224.058 149.619V154H222.575V153.101H222.524C222.43 153.283 222.298 153.453 222.127 153.612C221.96 153.768 221.748 153.895 221.493 153.991C221.24 154.085 220.943 154.132 220.602 154.132ZM221.002 152.999C221.312 152.999 221.581 152.937 221.808 152.815C222.035 152.69 222.21 152.526 222.332 152.321C222.457 152.116 222.52 151.893 222.52 151.652V150.881C222.471 150.92 222.389 150.957 222.272 150.991C222.159 151.026 222.031 151.055 221.889 151.081C221.747 151.107 221.606 151.129 221.467 151.149C221.328 151.169 221.207 151.186 221.105 151.2C220.875 151.232 220.669 151.283 220.487 151.354C220.305 151.425 220.162 151.524 220.056 151.652C219.951 151.777 219.899 151.939 219.899 152.138C219.899 152.422 220.002 152.636 220.21 152.781C220.417 152.926 220.681 152.999 221.002 152.999ZM227.015 151.946L227.011 150.084H227.258L229.61 147.455H231.413L228.52 150.676H228.2L227.015 151.946ZM225.609 154V145.273H227.152V154H225.609ZM229.717 154L227.586 151.021L228.626 149.935L231.562 154H229.717ZM235.069 154.128C234.413 154.128 233.846 153.991 233.369 153.719C232.895 153.443 232.529 153.054 232.274 152.551C232.018 152.045 231.89 151.45 231.89 150.766C231.89 150.092 232.018 149.501 232.274 148.993C232.532 148.482 232.893 148.084 233.356 147.8C233.819 147.513 234.363 147.369 234.988 147.369C235.392 147.369 235.772 147.435 236.13 147.565C236.491 147.693 236.809 147.892 237.085 148.162C237.363 148.432 237.582 148.776 237.741 149.193C237.9 149.608 237.98 150.102 237.98 150.676V151.149H232.615V150.109H236.501C236.498 149.814 236.434 149.551 236.309 149.321C236.184 149.088 236.01 148.905 235.785 148.771C235.564 148.638 235.305 148.571 235.01 148.571C234.694 148.571 234.417 148.648 234.179 148.801C233.94 148.952 233.754 149.151 233.62 149.398C233.49 149.642 233.423 149.911 233.42 150.203V151.111C233.42 151.491 233.49 151.818 233.629 152.091C233.768 152.361 233.963 152.568 234.213 152.713C234.463 152.855 234.755 152.926 235.091 152.926C235.315 152.926 235.518 152.895 235.7 152.832C235.882 152.767 236.039 152.672 236.173 152.547C236.306 152.422 236.407 152.267 236.475 152.082L237.916 152.244C237.825 152.625 237.652 152.957 237.396 153.241C237.143 153.523 236.819 153.741 236.424 153.898C236.029 154.051 235.578 154.128 235.069 154.128Z" fill="#171717"/>
<path d="M47.8781 85.8198C47.0186 84.9609 45.8533 84.4784 44.6383 84.4784C43.4232 84.4784 42.2579 84.9609 41.3984 85.8198L37.388 89.8302C36.5291 90.6897 36.0466 91.855 36.0466 93.0701C36.0466 94.2851 36.5291 95.4504 37.388 96.3099L41.3984 100.32C42.2579 101.179 43.4232 101.662 44.6383 101.662C45.8533 101.662 47.0186 101.179 47.8781 100.32L51.8885 96.3099C52.7474 95.4504 53.2299 94.2851 53.2299 93.0701C53.2299 91.855 52.7474 90.6897 51.8885 89.8302L47.8781 85.8198ZM44.6354 97.0833L40.625 93.0729L44.6354 89.0625L48.6458 93.0729L44.6354 97.0833Z" fill="#8330C2"/>
<path d="M28.5938 97.0833H26.875C26.2672 97.0833 25.6843 96.8419 25.2545 96.4121C24.8248 95.9824 24.5833 95.3995 24.5833 94.7917V72.001C24.5771 71.6828 24.6351 71.3666 24.7537 71.0712C24.8723 70.7759 25.0491 70.5074 25.2736 70.2818C25.4981 70.0562 25.7658 69.8781 26.0606 69.7581C26.3554 69.6381 26.6713 69.5787 26.9896 69.5833C27.5773 69.6128 28.1312 69.8671 28.5365 70.2938C28.9418 70.7204 29.1674 71.2866 29.1667 71.875C29.1667 72.4828 29.4081 73.0657 29.8379 73.4955C30.2677 73.9252 30.8505 74.1667 31.4583 74.1667H36.0417C36.6495 74.1667 37.2324 73.9252 37.6621 73.4955C38.0919 73.0657 38.3333 72.4828 38.3333 71.875C38.3326 71.2866 38.5583 70.7204 38.9635 70.2938C39.3688 69.8671 39.9227 69.6128 40.5104 69.5833C40.8287 69.5787 41.1446 69.6381 41.4394 69.7581C41.7342 69.8781 42.0019 70.0562 42.2264 70.2818C42.4509 70.5074 42.6277 70.7759 42.7463 71.0712C42.8649 71.3666 42.9229 71.6828 42.9167 72.001V80.4688H47.5V71.875C47.5 70.0516 46.7757 68.303 45.4864 67.0136C44.1971 65.7243 42.4484 65 40.625 65H26.875C25.0516 65 23.303 65.7243 22.0136 67.0136C20.7243 68.303 20 70.0516 20 71.875V94.7917C20 96.615 20.7243 98.3637 22.0136 99.653C23.303 100.942 25.0516 101.667 26.875 101.667H33.75V97.0833H28.5938Z" fill="#8330C2"/>
</g>
<defs>
<clipPath id="clip0_24_2">
<rect width="623" height="409" fill="white"/>
</clipPath>
</defs>
</svg>
