<svg width="200" height="221" viewBox="0 0 200 221" fill="none" xmlns="http://www.w3.org/2000/svg">
<path d="M167.789 125.584C162.616 120.415 155.603 117.511 148.29 117.511C140.977 117.511 133.963 120.415 128.79 125.584L104.653 149.722C99.4833 154.894 96.5795 161.908 96.5795 169.221C96.5795 176.534 99.4833 183.548 104.653 188.721L128.79 212.858C133.963 218.028 140.977 220.932 148.29 220.932C155.603 220.932 162.616 218.028 167.789 212.858L191.927 188.721C197.096 183.548 200 176.534 200 169.221C200 161.908 197.096 154.894 191.927 149.722L167.789 125.584ZM148.272 193.376L124.135 169.239L148.272 145.101L172.41 169.239L148.272 193.376Z" fill="#8330C2"/>
<path d="M51.723 193.376H41.3784C37.7203 193.376 34.2121 191.923 31.6254 189.336C29.0388 186.749 27.5856 183.241 27.5856 179.583V42.4137C27.5484 40.4984 27.897 38.5952 28.6108 36.8175C29.3245 35.0397 30.3888 33.4238 31.7402 32.066C33.0915 30.7082 34.7024 29.6363 36.4767 28.9141C38.251 28.1919 40.1526 27.8342 42.068 27.8623C45.6053 28.0394 48.9389 29.5704 51.3782 32.1381C53.8175 34.7058 55.1756 38.1135 55.1712 41.6551C55.1712 45.3132 56.6244 48.8215 59.211 51.4081C61.7977 53.9948 65.3059 55.4479 68.964 55.4479H96.5496C100.208 55.4479 103.716 53.9948 106.303 51.4081C108.889 48.8215 110.342 45.3132 110.342 41.6551C110.338 38.1135 111.696 34.7058 114.135 32.1381C116.575 29.5704 119.908 28.0394 123.446 27.8623C125.361 27.8342 127.263 28.1919 129.037 28.9141C130.811 29.6363 132.422 30.7082 133.773 32.066C135.125 33.4238 136.189 35.0397 136.903 36.8175C137.617 38.5952 137.965 40.4984 137.928 42.4137V93.3781H165.514V41.6551C165.514 30.6809 161.154 20.1561 153.394 12.3962C145.634 4.63623 135.109 0.276733 124.135 0.276733H41.3784C30.4042 0.276733 19.8794 4.63623 12.1195 12.3962C4.3595 20.1561 0 30.6809 0 41.6551V179.583C0 190.557 4.3595 201.082 12.1195 208.842C19.8794 216.602 30.4042 220.962 41.3784 220.962H82.7568V193.376H51.723Z" fill="#8330C2"/>
</svg>
