<svg viewbox="0 0 150 38" xmlns="http://www.w3.org/2000/svg">
    <path
        d="M12 29.32C11.28 29.32 10.6933 29.1467 10.24 28.8C9.81333 28.4533 9.46667 27.9067 9.2 27.16L0.84 3.52C0.546667 2.66667 0.6 1.94667 1 1.36C1.42667 0.773331 2.13333 0.479998 3.12 0.479998C3.84 0.479998 4.4 0.653331 4.8 0.999998C5.2 1.32 5.52 1.84 5.76 2.56L12.96 23.92H11.36L18.88 2.6C19.1467 1.88 19.48 1.34667 19.88 0.999998C20.28 0.653331 20.8 0.479998 21.44 0.479998C22.08 0.479998 22.5867 0.653331 22.96 0.999998C23.3333 1.34667 23.6533 1.89333 23.92 2.64L31.2 23.92H29.8L37.12 2.56C37.36 1.86667 37.68 1.34667 38.08 0.999998C38.48 0.653331 39.0267 0.479998 39.72 0.479998C40.5733 0.479998 41.2 0.773331 41.6 1.36C42 1.94667 42.0533 2.66667 41.76 3.52L33.32 27.2C33.0533 27.92 32.7067 28.4533 32.28 28.8C31.8533 29.1467 31.28 29.32 30.56 29.32C29.84 29.32 29.2667 29.1467 28.84 28.8C28.4133 28.4533 28.0667 27.9067 27.8 27.16L20.84 7.32H21.76L14.72 27.2C14.4533 27.92 14.1067 28.4533 13.68 28.8C13.28 29.1467 12.72 29.32 12 29.32ZM50.6034 29.28C49.8034 29.28 49.1901 29.04 48.7634 28.56C48.3368 28.08 48.1234 27.4133 48.1234 26.56V11.88C48.1234 11 48.3368 10.3333 48.7634 9.88C49.1901 9.4 49.8034 9.16 50.6034 9.16C51.4034 9.16 52.0168 9.4 52.4434 9.88C52.8968 10.3333 53.1234 11 53.1234 11.88V26.56C53.1234 27.4133 52.9101 28.08 52.4834 28.56C52.0568 29.04 51.4301 29.28 50.6034 29.28ZM50.6034 5.44C49.6701 5.44 48.9368 5.21333 48.4034 4.76C47.8968 4.28 47.6434 3.62667 47.6434 2.8C47.6434 1.94667 47.8968 1.29333 48.4034 0.839998C48.9368 0.386666 49.6701 0.159999 50.6034 0.159999C51.5634 0.159999 52.2968 0.386666 52.8034 0.839998C53.3101 1.29333 53.5634 1.94667 53.5634 2.8C53.5634 3.62667 53.3101 4.28 52.8034 4.76C52.2968 5.21333 51.5634 5.44 50.6034 5.44ZM67.3588 29.4C65.3054 29.4 63.5188 28.9867 61.9988 28.16C60.4788 27.3067 59.3054 26.1067 58.4788 24.56C57.6521 23.0133 57.2388 21.2 57.2388 19.12C57.2388 17.5467 57.4654 16.1467 57.9188 14.92C58.3988 13.6667 59.0788 12.6133 59.9588 11.76C60.8388 10.88 61.9054 10.2133 63.1588 9.76C64.4121 9.28 65.8121 9.04 67.3588 9.04C68.2388 9.04 69.1854 9.16 70.1988 9.4C71.2388 9.64 72.2121 10.04 73.1188 10.6C73.5454 10.8667 73.8254 11.1867 73.9588 11.56C74.0921 11.9333 74.1188 12.32 74.0388 12.72C73.9588 13.0933 73.7854 13.4267 73.5188 13.72C73.2788 13.9867 72.9721 14.16 72.5988 14.24C72.2254 14.2933 71.8121 14.2 71.3588 13.96C70.7721 13.6133 70.1721 13.36 69.5588 13.2C68.9454 13.0133 68.3588 12.92 67.7988 12.92C66.9188 12.92 66.1454 13.0667 65.4788 13.36C64.8121 13.6267 64.2388 14.0267 63.7588 14.56C63.3054 15.0667 62.9588 15.7067 62.7188 16.48C62.4788 17.2533 62.3588 18.1467 62.3588 19.16C62.3588 21.1333 62.8254 22.6933 63.7588 23.84C64.7188 24.96 66.0654 25.52 67.7988 25.52C68.3588 25.52 68.9321 25.44 69.5188 25.28C70.1321 25.12 70.7454 24.8667 71.3588 24.52C71.8121 24.28 72.2121 24.2 72.5588 24.28C72.9321 24.36 73.2388 24.5467 73.4788 24.84C73.7188 25.1067 73.8654 25.44 73.9188 25.84C73.9721 26.2133 73.9188 26.5867 73.7588 26.96C73.6254 27.3333 73.3588 27.64 72.9588 27.88C72.0788 28.4133 71.1454 28.8 70.1588 29.04C69.1721 29.28 68.2388 29.4 67.3588 29.4ZM79.6659 29.32C78.8659 29.32 78.2526 29.1067 77.8259 28.68C77.3993 28.2267 77.1859 27.5867 77.1859 26.76V3C77.1859 2.17333 77.3993 1.54666 77.8259 1.12C78.2526 0.693331 78.8659 0.479998 79.6659 0.479998C80.4659 0.479998 81.0793 0.693331 81.5059 1.12C81.9593 1.54666 82.1859 2.17333 82.1859 3V17.76H82.2659L88.8659 10.8C89.3993 10.2667 89.8659 9.85333 90.2659 9.56C90.6659 9.26667 91.2126 9.12 91.9059 9.12C92.5993 9.12 93.1193 9.30667 93.4659 9.68C93.8393 10.0267 94.0259 10.4533 94.0259 10.96C94.0259 11.4667 93.7859 11.9733 93.3059 12.48L86.3459 19.84V17.76L93.9859 26C94.4659 26.5067 94.6793 27.0267 94.6259 27.56C94.5993 28.0667 94.3859 28.4933 93.9859 28.84C93.5859 29.16 93.0793 29.32 92.4659 29.32C91.7193 29.32 91.1193 29.1733 90.6659 28.88C90.2393 28.5867 89.7593 28.1467 89.2259 27.56L82.2659 20.28H82.1859V26.76C82.1859 28.4667 81.3459 29.32 79.6659 29.32ZM101.191 29.32C100.365 29.32 99.7246 29.1067 99.2713 28.68C98.8446 28.2267 98.6313 27.5867 98.6313 26.76V11.64C98.6313 10.8133 98.8446 10.1867 99.2713 9.76C99.6979 9.33333 100.298 9.12 101.071 9.12C101.845 9.12 102.445 9.33333 102.871 9.76C103.298 10.1867 103.511 10.8133 103.511 11.64V14.16H103.111C103.485 12.56 104.218 11.3467 105.311 10.52C106.405 9.69333 107.858 9.2 109.671 9.04C110.231 8.98667 110.671 9.13333 110.991 9.48C111.338 9.8 111.538 10.3067 111.591 11C111.645 11.6667 111.485 12.2133 111.111 12.64C110.765 13.04 110.231 13.28 109.511 13.36L108.631 13.44C107.005 13.6 105.778 14.1067 104.951 14.96C104.125 15.7867 103.711 16.96 103.711 18.48V26.76C103.711 27.5867 103.498 28.2267 103.071 28.68C102.645 29.1067 102.018 29.32 101.191 29.32ZM123.623 29.4C121.409 29.4 119.503 28.9867 117.903 28.16C116.303 27.3333 115.063 26.16 114.183 24.64C113.329 23.12 112.903 21.32 112.903 19.24C112.903 17.2133 113.316 15.44 114.143 13.92C114.996 12.4 116.156 11.2133 117.623 10.36C119.116 9.48 120.809 9.04 122.703 9.04C124.089 9.04 125.329 9.26667 126.423 9.72C127.543 10.1733 128.489 10.8267 129.263 11.68C130.063 12.5333 130.663 13.5733 131.063 14.8C131.489 16 131.703 17.36 131.703 18.88C131.703 19.36 131.529 19.7333 131.183 20C130.863 20.24 130.396 20.36 129.783 20.36H116.943V17.48H128.183L127.543 18.08C127.543 16.8533 127.356 15.8267 126.983 15C126.636 14.1733 126.116 13.5467 125.423 13.12C124.756 12.6667 123.916 12.44 122.903 12.44C121.783 12.44 120.823 12.7067 120.023 13.24C119.249 13.7467 118.649 14.48 118.223 15.44C117.823 16.3733 117.623 17.4933 117.623 18.8V19.08C117.623 21.2667 118.129 22.9067 119.143 24C120.183 25.0667 121.703 25.6 123.703 25.6C124.396 25.6 125.169 25.52 126.023 25.36C126.903 25.1733 127.729 24.8667 128.503 24.44C129.063 24.12 129.556 23.9867 129.983 24.04C130.409 24.0667 130.743 24.2133 130.983 24.48C131.249 24.7467 131.409 25.08 131.463 25.48C131.516 25.8533 131.436 26.24 131.223 26.64C131.036 27.04 130.703 27.3867 130.223 27.68C129.289 28.2667 128.209 28.7067 126.983 29C125.783 29.2667 124.663 29.4 123.623 29.4ZM144.544 29.4C142.811 29.4 141.358 29.1067 140.184 28.52C139.038 27.9333 138.184 27.08 137.624 25.96C137.064 24.8133 136.784 23.4 136.784 21.72V13.2H134.704C134.064 13.2 133.571 13.04 133.224 12.72C132.878 12.3733 132.704 11.9067 132.704 11.32C132.704 10.7067 132.878 10.24 133.224 9.92C133.571 9.6 134.064 9.44 134.704 9.44H136.784V5.8C136.784 4.97333 136.998 4.34667 137.424 3.92C137.878 3.49333 138.504 3.28 139.304 3.28C140.104 3.28 140.718 3.49333 141.144 3.92C141.571 4.34667 141.784 4.97333 141.784 5.8V9.44H146.024C146.664 9.44 147.158 9.6 147.504 9.92C147.851 10.24 148.024 10.7067 148.024 11.32C148.024 11.9067 147.851 12.3733 147.504 12.72C147.158 13.04 146.664 13.2 146.024 13.2H141.784V21.44C141.784 22.72 142.064 23.68 142.624 24.32C143.184 24.96 144.091 25.28 145.344 25.28C145.798 25.28 146.198 25.24 146.544 25.16C146.891 25.08 147.198 25.0267 147.464 25C147.784 24.9733 148.051 25.08 148.264 25.32C148.478 25.5333 148.584 25.9867 148.584 26.68C148.584 27.2133 148.491 27.6933 148.304 28.12C148.144 28.52 147.838 28.8 147.384 28.96C147.038 29.0667 146.584 29.16 146.024 29.24C145.464 29.3467 144.971 29.4 144.544 29.4Z"
        fill="currentColor"
    />
</svg>